<svg id="Layer_1" data-name="Layer 1" xmlns="http://www.w3.org/2000/svg" viewBox="0 0 135.32 58.54"><defs><style>.cls-1{fill:none;}.cls-2{fill:#363f44;}.cls-3{fill:#ef4230;}</style></defs><path class="cls-1" d="M55.77,8.75a2.68,2.68,0,0,0-1.8-.6,4.63,4.63,0,0,0-1.92.41,7.07,7.07,0,0,0-1.69,1.09V36.56a9,9,0,0,0,1.69.82,4.66,4.66,0,0,0,1.68.3,2.71,2.71,0,0,0,2-.67,4.08,4.08,0,0,0,1.06-1.76,7.65,7.65,0,0,0,.35-2.42V12.64a7.62,7.62,0,0,0-.31-2.28A3.34,3.34,0,0,0,55.77,8.75Z" transform="translate(-1.38 -0.82)"/><path class="cls-2" d="M65.42,15A22.48,22.48,0,0,1,67.71,4.72c0-.06-.06-.13-.1-.19a8.08,8.08,0,0,0-3-2.73,9.35,9.35,0,0,0-4.43-1,14,14,0,0,0-4.94,1,16.52,16.52,0,0,0-4.86,2.91V1.57H37.58V59H50.36V41.5a20.66,20.66,0,0,0,4.74,3A12.21,12.21,0,0,0,60,45.53a8.61,8.61,0,0,0,5.4-1.68,9.58,9.58,0,0,0,2.18-2.46,22.45,22.45,0,0,1-2.17-10ZM57.1,32.83a7.65,7.65,0,0,1-.35,2.42A4.08,4.08,0,0,1,55.69,37a2.71,2.71,0,0,1-2,.67,4.66,4.66,0,0,1-1.68-.3,9,9,0,0,1-1.69-.82V9.65a7.07,7.07,0,0,1,1.69-1.09A4.63,4.63,0,0,1,54,8.15a2.68,2.68,0,0,1,1.8.6,3.34,3.34,0,0,1,1,1.61,7.62,7.62,0,0,1,.31,2.28Z" transform="translate(-1.38 -0.82)"/><path class="cls-2" d="M135.48,28.86a16.88,16.88,0,0,0-3.1-4q-1.87-1.8-3.84-3.37l-3.21-2.69a55.94,55.94,0,0,1-4.67-4A4.57,4.57,0,0,1,119,11.82a2.3,2.3,0,0,1,.74-1.8,2.86,2.86,0,0,1,2-.67,4.12,4.12,0,0,1,2.63,1,9.26,9.26,0,0,1,2.08,2.39,14.21,14.21,0,0,1,1.33,2.84L136,12a15.25,15.25,0,0,0-5.25-8.23A14.81,14.81,0,0,0,121.41.82a16.1,16.1,0,0,0-6.9,1.5,12.82,12.82,0,0,0-4,2.92A22.38,22.38,0,0,1,112.62,15v7.89c.79.75,1.64,1.5,2.59,2.27l3.3,2.62a52.77,52.77,0,0,1,4.9,4.19,4.43,4.43,0,0,1,1.37,3.14,2,2,0,0,1-.75,1.64,3.49,3.49,0,0,1-2.23.6,5.2,5.2,0,0,1-3.73-1.68,14.71,14.71,0,0,1-2.94-4.6l-2.55,1.07a22.24,22.24,0,0,1-2,9A13,13,0,0,0,112.9,43a18,18,0,0,0,9.92,2.54,17.16,17.16,0,0,0,6.78-1.34,12.16,12.16,0,0,0,5.14-4,10.51,10.51,0,0,0,2-6.4A9.93,9.93,0,0,0,135.48,28.86Z" transform="translate(-1.38 -0.82)"/><path class="cls-3" d="M91,9.53a3.36,3.36,0,0,0-3.92,0,3.68,3.68,0,0,0-1,1.8,10.82,10.82,0,0,0-.31,2.8v18.1a10.82,10.82,0,0,0,.31,2.8,3.61,3.61,0,0,0,1,1.79,3.32,3.32,0,0,0,3.92,0A3.35,3.35,0,0,0,92,35a12.47,12.47,0,0,0,.28-2.8V14.13a12.47,12.47,0,0,0-.28-2.8A3.42,3.42,0,0,0,91,9.53Z" transform="translate(-1.38 -0.82)"/><path class="cls-2" d="M97.41,2.4A20.76,20.76,0,0,0,89,.82,20.76,20.76,0,0,0,80.55,2.4a11.81,11.81,0,0,0-5.48,4.7A14.77,14.77,0,0,0,73.14,15V31.4a14.71,14.71,0,0,0,1.93,7.85A11.77,11.77,0,0,0,80.55,44,20.76,20.76,0,0,0,89,45.53,20.76,20.76,0,0,0,97.41,44a12,12,0,0,0,5.53-4.71,14.62,14.62,0,0,0,2-7.85V15a14.68,14.68,0,0,0-2-7.86A12,12,0,0,0,97.41,2.4ZM92.28,32.23A12.47,12.47,0,0,1,92,35a3.35,3.35,0,0,1-1,1.79,3.32,3.32,0,0,1-3.92,0,3.61,3.61,0,0,1-1-1.79,10.82,10.82,0,0,1-.31-2.8V14.13a10.82,10.82,0,0,1,.31-2.8,3.68,3.68,0,0,1,1-1.8,3.36,3.36,0,0,1,3.92,0,3.42,3.42,0,0,1,1,1.8,12.47,12.47,0,0,1,.28,2.8Z" transform="translate(-1.38 -0.82)"/><path class="cls-2" d="M16.24,59.36A47.51,47.51,0,0,1,10.07,59a17.38,17.38,0,0,1-4.61-1.23,18.7,18.7,0,0,1-4.08-2.5l4.18-6.8a18.24,18.24,0,0,0,9.06,2.56A5.33,5.33,0,0,0,19,49.25a7.29,7.29,0,0,0,1.45-4.7V39.72Q19,44.78,12.58,44.78a9.83,9.83,0,0,1-6-1.68,9.51,9.51,0,0,1-3.32-4.53,18.64,18.64,0,0,1-1-6.38V14.48a24.75,24.75,0,0,1,.9-7A8.94,8.94,0,0,1,6.29,2.72,10.18,10.18,0,0,1,12.58,1a7.94,7.94,0,0,1,5.34,1.65,8,8,0,0,1,2.57,4.43V1.54H33.11V43.79q0,8.39-4.06,12T16.24,59.36Zm1.35-23.45c1.94,0,2.9-1.67,2.9-5V14.16a5.52,5.52,0,0,0-.81-2.76A2.47,2.47,0,0,0,17.45,10c-1.2,0-1.94.42-2.24,1.27a8.63,8.63,0,0,0-.45,2.91V30.91a12.23,12.23,0,0,0,.46,3.39A2.18,2.18,0,0,0,17.59,35.91Z" transform="translate(-1.38 -0.82)"/><path class="cls-3" d="M60.45,50.58a.5.5,0,0,1-.17.18.37.37,0,0,1-.21.06.51.51,0,0,1-.31-.11l-.42-.24a4.76,4.76,0,0,0-.59-.25,2.81,2.81,0,0,0-.82-.11,2.5,2.5,0,0,0-.76.1,1.74,1.74,0,0,0-.56.29,1.22,1.22,0,0,0-.34.44,1.37,1.37,0,0,0-.11.54,1,1,0,0,0,.21.63,1.77,1.77,0,0,0,.56.43,4.69,4.69,0,0,0,.78.31l.91.29c.3.1.61.21.9.34a3,3,0,0,1,.79.49,2.19,2.19,0,0,1,.76,1.76A3.14,3.14,0,0,1,60.83,57a2.84,2.84,0,0,1-.69,1,3.2,3.2,0,0,1-1.12.68,4.38,4.38,0,0,1-1.51.25,5.15,5.15,0,0,1-1-.1,5.31,5.31,0,0,1-.91-.26,4.39,4.39,0,0,1-.81-.41,4.56,4.56,0,0,1-.68-.53l.5-.77a.38.38,0,0,1,.16-.15.46.46,0,0,1,.23-.06.66.66,0,0,1,.37.15l.49.32a3.17,3.17,0,0,0,.69.32,2.84,2.84,0,0,0,1,.15A2.17,2.17,0,0,0,59,57.14a1.46,1.46,0,0,0,.5-1.18,1,1,0,0,0-.21-.68,1.65,1.65,0,0,0-.55-.45,4.5,4.5,0,0,0-.79-.3l-.9-.26q-.45-.15-.9-.33a2.89,2.89,0,0,1-.78-.5,2.24,2.24,0,0,1-.56-.75,2.68,2.68,0,0,1-.21-1.13,2.48,2.48,0,0,1,.22-1,2.56,2.56,0,0,1,.65-.89,3,3,0,0,1,1-.62,3.91,3.91,0,0,1,1.42-.24,4.84,4.84,0,0,1,1.65.27,3.77,3.77,0,0,1,1.29.76Z" transform="translate(-1.38 -0.82)"/><path class="cls-3" d="M72.7,54.91v3.88H71V54.91l-3.81-6h1.49A.56.56,0,0,1,69,49a.71.71,0,0,1,.22.26L71.4,52.8c.1.18.18.35.26.51s.15.32.22.47a3.85,3.85,0,0,1,.19-.47l.26-.51,2.13-3.54a.72.72,0,0,1,.21-.25.52.52,0,0,1,.36-.12h1.49Z" transform="translate(-1.38 -0.82)"/><path class="cls-3" d="M88.64,50.58a.59.59,0,0,1-.17.18.38.38,0,0,1-.22.06.51.51,0,0,1-.3-.11l-.43-.24a3.74,3.74,0,0,0-.59-.25,2.73,2.73,0,0,0-.81-.11,2.57,2.57,0,0,0-.77.1,1.69,1.69,0,0,0-.55.29,1.22,1.22,0,0,0-.34.44,1.37,1.37,0,0,0-.11.54,1,1,0,0,0,.21.63,1.77,1.77,0,0,0,.56.43,4.69,4.69,0,0,0,.78.31l.91.29c.3.1.6.21.9.34a3.18,3.18,0,0,1,.79.49,2.19,2.19,0,0,1,.76,1.76A3.14,3.14,0,0,1,89,57a2.84,2.84,0,0,1-.69,1,3.3,3.3,0,0,1-1.12.68,4.38,4.38,0,0,1-1.51.25,5.34,5.34,0,0,1-1-.1,5.2,5.2,0,0,1-.9-.26,4.39,4.39,0,0,1-.81-.41,4.56,4.56,0,0,1-.68-.53l.5-.77a.38.38,0,0,1,.16-.15.46.46,0,0,1,.23-.06.66.66,0,0,1,.37.15c.13.1.3.2.49.32a3.17,3.17,0,0,0,.69.32,2.82,2.82,0,0,0,1,.15,2.18,2.18,0,0,0,1.43-.42,1.49,1.49,0,0,0,.5-1.18,1,1,0,0,0-.21-.68,1.65,1.65,0,0,0-.55-.45,4.5,4.5,0,0,0-.79-.3l-.9-.26-.9-.33a2.94,2.94,0,0,1-.79-.5,2.21,2.21,0,0,1-.55-.75,2.68,2.68,0,0,1-.21-1.13,2.48,2.48,0,0,1,.22-1,2.56,2.56,0,0,1,.65-.89,3.06,3.06,0,0,1,1-.62,4,4,0,0,1,1.43-.24,4.84,4.84,0,0,1,1.65.27,3.77,3.77,0,0,1,1.29.76Z" transform="translate(-1.38 -0.82)"/><path class="cls-3" d="M104.09,50.23h-3.26v8.56H99.14V50.23H95.87V48.89h8.22Z" transform="translate(-1.38 -0.82)"/><path class="cls-3" d="M117.86,57.49v1.3h-6.52v-9.9h6.52v1.3h-4.81v3h3.84v1.26h-3.84v3.06Z" transform="translate(-1.38 -0.82)"/><path class="cls-3" d="M136.62,48.89v9.9h-1.5V52c0-.11,0-.23,0-.36a2.56,2.56,0,0,1,0-.39l-3.36,5.87a.63.63,0,0,1-.6.37H131a.64.64,0,0,1-.61-.37L127,51.23c0,.14,0,.27,0,.4s0,.26,0,.37v6.79h-1.5v-9.9h1.27a1.08,1.08,0,0,1,.35,0,.46.46,0,0,1,.23.23l3.35,5.75.21.41c.06.14.12.28.17.43.06-.15.12-.29.19-.44s.13-.28.2-.41l3.31-5.74a.41.41,0,0,1,.22-.23,1.08,1.08,0,0,1,.35,0Z" transform="translate(-1.38 -0.82)"/></svg>